<mxfile host="app.diagrams.net" modified="2024-04-29T18:20:48.702Z" agent="Mozilla/5.0 (Windows NT 10.0; Win64; x64) AppleWebKit/537.36 (KHTML, like Gecko) Chrome/121.0.0.0 Safari/537.36 OPR/107.0.0.0" etag="JbNfQCNOQnhPIk2vDI_b" version="21.3.8" type="github">
  <diagram name="Page-1" id="efa7a0a1-bf9b-a30e-e6df-94a7791c09e9">
    <mxGraphModel dx="1161" dy="638" grid="1" gridSize="10" guides="1" tooltips="1" connect="1" arrows="1" fold="1" page="1" pageScale="1" pageWidth="826" pageHeight="1169" background="none" math="0" shadow="0">
      <root>
        <mxCell id="0" />
        <mxCell id="1" parent="0" />
        <mxCell id="KDd4eSBWKSHy57C9hywJ-114" value="Person" style="swimlane;fontStyle=1;align=center;verticalAlign=top;childLayout=stackLayout;horizontal=1;startSize=26;horizontalStack=0;resizeParent=1;resizeParentMax=0;resizeLast=0;collapsible=1;marginBottom=0;whiteSpace=wrap;html=1;" parent="1" vertex="1">
          <mxGeometry x="330" y="280" width="160" height="190" as="geometry" />
        </mxCell>
        <mxCell id="KDd4eSBWKSHy57C9hywJ-115" value="+ name: string" style="text;strokeColor=none;fillColor=none;align=left;verticalAlign=top;spacingLeft=4;spacingRight=4;overflow=hidden;rotatable=0;points=[[0,0.5],[1,0.5]];portConstraint=eastwest;whiteSpace=wrap;html=1;" parent="KDd4eSBWKSHy57C9hywJ-114" vertex="1">
          <mxGeometry y="26" width="160" height="26" as="geometry" />
        </mxCell>
        <mxCell id="KDd4eSBWKSHy57C9hywJ-119" value="+ category_id: int" style="text;strokeColor=none;fillColor=none;align=left;verticalAlign=top;spacingLeft=4;spacingRight=4;overflow=hidden;rotatable=0;points=[[0,0.5],[1,0.5]];portConstraint=eastwest;whiteSpace=wrap;html=1;" parent="KDd4eSBWKSHy57C9hywJ-114" vertex="1">
          <mxGeometry y="52" width="160" height="26" as="geometry" />
        </mxCell>
        <mxCell id="KDd4eSBWKSHy57C9hywJ-118" value="+ days_off_per_year: int" style="text;strokeColor=none;fillColor=none;align=left;verticalAlign=top;spacingLeft=4;spacingRight=4;overflow=hidden;rotatable=0;points=[[0,0.5],[1,0.5]];portConstraint=eastwest;whiteSpace=wrap;html=1;" parent="KDd4eSBWKSHy57C9hywJ-114" vertex="1">
          <mxGeometry y="78" width="160" height="26" as="geometry" />
        </mxCell>
        <mxCell id="cEJkaudLO_2ttOXW4UQ3-103" value="+ days_off&lt;span style=&quot;background-color: initial;&quot;&gt;: int&lt;/span&gt;" style="text;strokeColor=none;fillColor=none;align=left;verticalAlign=top;spacingLeft=4;spacingRight=4;overflow=hidden;rotatable=0;points=[[0,0.5],[1,0.5]];portConstraint=eastwest;whiteSpace=wrap;html=1;fontColor=#0000FF;" vertex="1" parent="KDd4eSBWKSHy57C9hywJ-114">
          <mxGeometry y="104" width="160" height="26" as="geometry" />
        </mxCell>
        <mxCell id="Dw0zCbdRvmjCRuqw88a7-30" value="+ start_date&lt;span style=&quot;background-color: initial;&quot;&gt;: date&lt;/span&gt;" style="text;strokeColor=none;fillColor=none;align=left;verticalAlign=top;spacingLeft=4;spacingRight=4;overflow=hidden;rotatable=0;points=[[0,0.5],[1,0.5]];portConstraint=eastwest;whiteSpace=wrap;html=1;" parent="KDd4eSBWKSHy57C9hywJ-114" vertex="1">
          <mxGeometry y="130" width="160" height="26" as="geometry" />
        </mxCell>
        <mxCell id="Dw0zCbdRvmjCRuqw88a7-31" value="+ default_shift_id: int NULL" style="text;strokeColor=none;fillColor=none;align=left;verticalAlign=top;spacingLeft=4;spacingRight=4;overflow=hidden;rotatable=0;points=[[0,0.5],[1,0.5]];portConstraint=eastwest;whiteSpace=wrap;html=1;" parent="KDd4eSBWKSHy57C9hywJ-114" vertex="1">
          <mxGeometry y="156" width="160" height="26" as="geometry" />
        </mxCell>
        <mxCell id="KDd4eSBWKSHy57C9hywJ-116" value="" style="line;strokeWidth=1;fillColor=none;align=left;verticalAlign=middle;spacingTop=-1;spacingLeft=3;spacingRight=3;rotatable=0;labelPosition=right;points=[];portConstraint=eastwest;strokeColor=inherit;" parent="KDd4eSBWKSHy57C9hywJ-114" vertex="1">
          <mxGeometry y="182" width="160" height="8" as="geometry" />
        </mxCell>
        <mxCell id="KDd4eSBWKSHy57C9hywJ-120" value="NFCKey" style="swimlane;fontStyle=1;align=center;verticalAlign=top;childLayout=stackLayout;horizontal=1;startSize=26;horizontalStack=0;resizeParent=1;resizeParentMax=0;resizeLast=0;collapsible=1;marginBottom=0;whiteSpace=wrap;html=1;" parent="1" vertex="1">
          <mxGeometry x="560" y="280" width="160" height="112" as="geometry" />
        </mxCell>
        <mxCell id="KDd4eSBWKSHy57C9hywJ-121" value="+ uid: string" style="text;strokeColor=none;fillColor=none;align=left;verticalAlign=top;spacingLeft=4;spacingRight=4;overflow=hidden;rotatable=0;points=[[0,0.5],[1,0.5]];portConstraint=eastwest;whiteSpace=wrap;html=1;" parent="KDd4eSBWKSHy57C9hywJ-120" vertex="1">
          <mxGeometry y="26" width="160" height="26" as="geometry" />
        </mxCell>
        <mxCell id="KDd4eSBWKSHy57C9hywJ-122" value="+ is_active: bool" style="text;strokeColor=none;fillColor=none;align=left;verticalAlign=top;spacingLeft=4;spacingRight=4;overflow=hidden;rotatable=0;points=[[0,0.5],[1,0.5]];portConstraint=eastwest;whiteSpace=wrap;html=1;" parent="KDd4eSBWKSHy57C9hywJ-120" vertex="1">
          <mxGeometry y="52" width="160" height="26" as="geometry" />
        </mxCell>
        <mxCell id="KDd4eSBWKSHy57C9hywJ-123" value="+ person_id: int" style="text;strokeColor=none;fillColor=none;align=left;verticalAlign=top;spacingLeft=4;spacingRight=4;overflow=hidden;rotatable=0;points=[[0,0.5],[1,0.5]];portConstraint=eastwest;whiteSpace=wrap;html=1;" parent="KDd4eSBWKSHy57C9hywJ-120" vertex="1">
          <mxGeometry y="78" width="160" height="26" as="geometry" />
        </mxCell>
        <mxCell id="KDd4eSBWKSHy57C9hywJ-124" value="" style="line;strokeWidth=1;fillColor=none;align=left;verticalAlign=middle;spacingTop=-1;spacingLeft=3;spacingRight=3;rotatable=0;labelPosition=right;points=[];portConstraint=eastwest;strokeColor=inherit;" parent="KDd4eSBWKSHy57C9hywJ-120" vertex="1">
          <mxGeometry y="104" width="160" height="8" as="geometry" />
        </mxCell>
        <mxCell id="Dw0zCbdRvmjCRuqw88a7-7" value="Role" style="swimlane;fontStyle=1;align=center;verticalAlign=top;childLayout=stackLayout;horizontal=1;startSize=26;horizontalStack=0;resizeParent=1;resizeParentMax=0;resizeLast=0;collapsible=1;marginBottom=0;whiteSpace=wrap;html=1;" parent="1" vertex="1">
          <mxGeometry x="515" y="1210" width="190" height="948" as="geometry" />
        </mxCell>
        <mxCell id="Dw0zCbdRvmjCRuqw88a7-8" value="+ name : string UNIQUE" style="text;strokeColor=none;fillColor=none;align=left;verticalAlign=top;spacingLeft=4;spacingRight=4;overflow=hidden;rotatable=0;points=[[0,0.5],[1,0.5]];portConstraint=eastwest;whiteSpace=wrap;html=1;" parent="Dw0zCbdRvmjCRuqw88a7-7" vertex="1">
          <mxGeometry y="26" width="190" height="26" as="geometry" />
        </mxCell>
        <mxCell id="Dw0zCbdRvmjCRuqw88a7-24" value="+ description : string" style="text;strokeColor=none;fillColor=none;align=left;verticalAlign=top;spacingLeft=4;spacingRight=4;overflow=hidden;rotatable=0;points=[[0,0.5],[1,0.5]];portConstraint=eastwest;whiteSpace=wrap;html=1;" parent="Dw0zCbdRvmjCRuqw88a7-7" vertex="1">
          <mxGeometry y="52" width="190" height="26" as="geometry" />
        </mxCell>
        <mxCell id="cEJkaudLO_2ttOXW4UQ3-17" value="+ trusted: bool" style="text;strokeColor=none;fillColor=none;align=left;verticalAlign=top;spacingLeft=4;spacingRight=4;overflow=hidden;rotatable=0;points=[[0,0.5],[1,0.5]];portConstraint=eastwest;whiteSpace=wrap;html=1;" vertex="1" parent="Dw0zCbdRvmjCRuqw88a7-7">
          <mxGeometry y="78" width="190" height="26" as="geometry" />
        </mxCell>
        <mxCell id="cEJkaudLO_2ttOXW4UQ3-18" value="+ parent_role: int" style="text;strokeColor=none;fillColor=none;align=left;verticalAlign=top;spacingLeft=4;spacingRight=4;overflow=hidden;rotatable=0;points=[[0,0.5],[1,0.5]];portConstraint=eastwest;whiteSpace=wrap;html=1;" vertex="1" parent="Dw0zCbdRvmjCRuqw88a7-7">
          <mxGeometry y="104" width="190" height="26" as="geometry" />
        </mxCell>
        <mxCell id="Dw0zCbdRvmjCRuqw88a7-12" value="+ create_person: bool NULL" style="text;strokeColor=none;fillColor=none;align=left;verticalAlign=top;spacingLeft=4;spacingRight=4;overflow=hidden;rotatable=0;points=[[0,0.5],[1,0.5]];portConstraint=eastwest;whiteSpace=wrap;html=1;" parent="Dw0zCbdRvmjCRuqw88a7-7" vertex="1">
          <mxGeometry y="130" width="190" height="26" as="geometry" />
        </mxCell>
        <mxCell id="Dw0zCbdRvmjCRuqw88a7-9" value="+ read_person: bool&amp;nbsp;NULL" style="text;strokeColor=none;fillColor=none;align=left;verticalAlign=top;spacingLeft=4;spacingRight=4;overflow=hidden;rotatable=0;points=[[0,0.5],[1,0.5]];portConstraint=eastwest;whiteSpace=wrap;html=1;" parent="Dw0zCbdRvmjCRuqw88a7-7" vertex="1">
          <mxGeometry y="156" width="190" height="26" as="geometry" />
        </mxCell>
        <mxCell id="Dw0zCbdRvmjCRuqw88a7-13" value="+ update_person: bool&amp;nbsp;NULL" style="text;strokeColor=none;fillColor=none;align=left;verticalAlign=top;spacingLeft=4;spacingRight=4;overflow=hidden;rotatable=0;points=[[0,0.5],[1,0.5]];portConstraint=eastwest;whiteSpace=wrap;html=1;fontColor=#FF0000;" parent="Dw0zCbdRvmjCRuqw88a7-7" vertex="1">
          <mxGeometry y="182" width="190" height="26" as="geometry" />
        </mxCell>
        <mxCell id="Dw0zCbdRvmjCRuqw88a7-14" value="+ delete_person: bool&amp;nbsp;NULL" style="text;strokeColor=none;fillColor=none;align=left;verticalAlign=top;spacingLeft=4;spacingRight=4;overflow=hidden;rotatable=0;points=[[0,0.5],[1,0.5]];portConstraint=eastwest;whiteSpace=wrap;html=1;" parent="Dw0zCbdRvmjCRuqw88a7-7" vertex="1">
          <mxGeometry y="208" width="190" height="26" as="geometry" />
        </mxCell>
        <mxCell id="Dw0zCbdRvmjCRuqw88a7-17" value="+ create_card: bool&amp;nbsp;NULL" style="text;strokeColor=none;fillColor=none;align=left;verticalAlign=top;spacingLeft=4;spacingRight=4;overflow=hidden;rotatable=0;points=[[0,0.5],[1,0.5]];portConstraint=eastwest;whiteSpace=wrap;html=1;" parent="Dw0zCbdRvmjCRuqw88a7-7" vertex="1">
          <mxGeometry y="234" width="190" height="26" as="geometry" />
        </mxCell>
        <mxCell id="Dw0zCbdRvmjCRuqw88a7-15" value="+ read_card: bool&amp;nbsp;NULL" style="text;strokeColor=none;fillColor=none;align=left;verticalAlign=top;spacingLeft=4;spacingRight=4;overflow=hidden;rotatable=0;points=[[0,0.5],[1,0.5]];portConstraint=eastwest;whiteSpace=wrap;html=1;" parent="Dw0zCbdRvmjCRuqw88a7-7" vertex="1">
          <mxGeometry y="260" width="190" height="26" as="geometry" />
        </mxCell>
        <mxCell id="cEJkaudLO_2ttOXW4UQ3-16" value="+ update_card: bool&amp;nbsp;NULL" style="text;strokeColor=none;fillColor=none;align=left;verticalAlign=top;spacingLeft=4;spacingRight=4;overflow=hidden;rotatable=0;points=[[0,0.5],[1,0.5]];portConstraint=eastwest;whiteSpace=wrap;html=1;" vertex="1" parent="Dw0zCbdRvmjCRuqw88a7-7">
          <mxGeometry y="286" width="190" height="26" as="geometry" />
        </mxCell>
        <mxCell id="Dw0zCbdRvmjCRuqw88a7-18" value="+ create_shift: bool&amp;nbsp;NULL" style="text;strokeColor=none;fillColor=none;align=left;verticalAlign=top;spacingLeft=4;spacingRight=4;overflow=hidden;rotatable=0;points=[[0,0.5],[1,0.5]];portConstraint=eastwest;whiteSpace=wrap;html=1;" parent="Dw0zCbdRvmjCRuqw88a7-7" vertex="1">
          <mxGeometry y="312" width="190" height="26" as="geometry" />
        </mxCell>
        <mxCell id="cEJkaudLO_2ttOXW4UQ3-1" value="+ read_shift: bool&amp;nbsp;NULL" style="text;strokeColor=none;fillColor=none;align=left;verticalAlign=top;spacingLeft=4;spacingRight=4;overflow=hidden;rotatable=0;points=[[0,0.5],[1,0.5]];portConstraint=eastwest;whiteSpace=wrap;html=1;" vertex="1" parent="Dw0zCbdRvmjCRuqw88a7-7">
          <mxGeometry y="338" width="190" height="26" as="geometry" />
        </mxCell>
        <mxCell id="cEJkaudLO_2ttOXW4UQ3-2" value="+ update_shift: bool&amp;nbsp;NULL" style="text;strokeColor=none;fillColor=none;align=left;verticalAlign=top;spacingLeft=4;spacingRight=4;overflow=hidden;rotatable=0;points=[[0,0.5],[1,0.5]];portConstraint=eastwest;whiteSpace=wrap;html=1;fontColor=#FF0000;" vertex="1" parent="Dw0zCbdRvmjCRuqw88a7-7">
          <mxGeometry y="364" width="190" height="26" as="geometry" />
        </mxCell>
        <mxCell id="cEJkaudLO_2ttOXW4UQ3-3" value="+ delete_shift: bool&amp;nbsp;NULL" style="text;strokeColor=none;fillColor=none;align=left;verticalAlign=top;spacingLeft=4;spacingRight=4;overflow=hidden;rotatable=0;points=[[0,0.5],[1,0.5]];portConstraint=eastwest;whiteSpace=wrap;html=1;" vertex="1" parent="Dw0zCbdRvmjCRuqw88a7-7">
          <mxGeometry y="390" width="190" height="26" as="geometry" />
        </mxCell>
        <mxCell id="Dw0zCbdRvmjCRuqw88a7-19" value="+ create_event: bool&amp;nbsp;NULL" style="text;strokeColor=none;fillColor=none;align=left;verticalAlign=top;spacingLeft=4;spacingRight=4;overflow=hidden;rotatable=0;points=[[0,0.5],[1,0.5]];portConstraint=eastwest;whiteSpace=wrap;html=1;" parent="Dw0zCbdRvmjCRuqw88a7-7" vertex="1">
          <mxGeometry y="416" width="190" height="26" as="geometry" />
        </mxCell>
        <mxCell id="cEJkaudLO_2ttOXW4UQ3-4" value="+ read_event: bool&amp;nbsp;NULL" style="text;strokeColor=none;fillColor=none;align=left;verticalAlign=top;spacingLeft=4;spacingRight=4;overflow=hidden;rotatable=0;points=[[0,0.5],[1,0.5]];portConstraint=eastwest;whiteSpace=wrap;html=1;" vertex="1" parent="Dw0zCbdRvmjCRuqw88a7-7">
          <mxGeometry y="442" width="190" height="26" as="geometry" />
        </mxCell>
        <mxCell id="cEJkaudLO_2ttOXW4UQ3-5" value="+ update_event: bool&amp;nbsp;NULL" style="text;strokeColor=none;fillColor=none;align=left;verticalAlign=top;spacingLeft=4;spacingRight=4;overflow=hidden;rotatable=0;points=[[0,0.5],[1,0.5]];portConstraint=eastwest;whiteSpace=wrap;html=1;fontColor=#FF0000;" vertex="1" parent="Dw0zCbdRvmjCRuqw88a7-7">
          <mxGeometry y="468" width="190" height="26" as="geometry" />
        </mxCell>
        <mxCell id="cEJkaudLO_2ttOXW4UQ3-6" value="+ delete_event: bool&amp;nbsp;NULL" style="text;strokeColor=none;fillColor=none;align=left;verticalAlign=top;spacingLeft=4;spacingRight=4;overflow=hidden;rotatable=0;points=[[0,0.5],[1,0.5]];portConstraint=eastwest;whiteSpace=wrap;html=1;" vertex="1" parent="Dw0zCbdRvmjCRuqw88a7-7">
          <mxGeometry y="494" width="190" height="26" as="geometry" />
        </mxCell>
        <mxCell id="Dw0zCbdRvmjCRuqw88a7-20" value="+ create_user: bool&amp;nbsp;NULL" style="text;strokeColor=none;fillColor=none;align=left;verticalAlign=top;spacingLeft=4;spacingRight=4;overflow=hidden;rotatable=0;points=[[0,0.5],[1,0.5]];portConstraint=eastwest;whiteSpace=wrap;html=1;" parent="Dw0zCbdRvmjCRuqw88a7-7" vertex="1">
          <mxGeometry y="520" width="190" height="26" as="geometry" />
        </mxCell>
        <mxCell id="cEJkaudLO_2ttOXW4UQ3-7" value="+ read_user: bool&amp;nbsp;NULL" style="text;strokeColor=none;fillColor=none;align=left;verticalAlign=top;spacingLeft=4;spacingRight=4;overflow=hidden;rotatable=0;points=[[0,0.5],[1,0.5]];portConstraint=eastwest;whiteSpace=wrap;html=1;" vertex="1" parent="Dw0zCbdRvmjCRuqw88a7-7">
          <mxGeometry y="546" width="190" height="26" as="geometry" />
        </mxCell>
        <mxCell id="cEJkaudLO_2ttOXW4UQ3-8" value="+ update_user: bool&amp;nbsp;NULL" style="text;strokeColor=none;fillColor=none;align=left;verticalAlign=top;spacingLeft=4;spacingRight=4;overflow=hidden;rotatable=0;points=[[0,0.5],[1,0.5]];portConstraint=eastwest;whiteSpace=wrap;html=1;" vertex="1" parent="Dw0zCbdRvmjCRuqw88a7-7">
          <mxGeometry y="572" width="190" height="26" as="geometry" />
        </mxCell>
        <mxCell id="cEJkaudLO_2ttOXW4UQ3-9" value="+ delete_user: bool&amp;nbsp;NULL" style="text;strokeColor=none;fillColor=none;align=left;verticalAlign=top;spacingLeft=4;spacingRight=4;overflow=hidden;rotatable=0;points=[[0,0.5],[1,0.5]];portConstraint=eastwest;whiteSpace=wrap;html=1;" vertex="1" parent="Dw0zCbdRvmjCRuqw88a7-7">
          <mxGeometry y="598" width="190" height="26" as="geometry" />
        </mxCell>
        <mxCell id="Dw0zCbdRvmjCRuqw88a7-21" value="+ create_role: bool&amp;nbsp;NULL" style="text;strokeColor=none;fillColor=none;align=left;verticalAlign=top;spacingLeft=4;spacingRight=4;overflow=hidden;rotatable=0;points=[[0,0.5],[1,0.5]];portConstraint=eastwest;whiteSpace=wrap;html=1;" parent="Dw0zCbdRvmjCRuqw88a7-7" vertex="1">
          <mxGeometry y="624" width="190" height="26" as="geometry" />
        </mxCell>
        <mxCell id="cEJkaudLO_2ttOXW4UQ3-10" value="+ read_role: bool&amp;nbsp;NULL" style="text;strokeColor=none;fillColor=none;align=left;verticalAlign=top;spacingLeft=4;spacingRight=4;overflow=hidden;rotatable=0;points=[[0,0.5],[1,0.5]];portConstraint=eastwest;whiteSpace=wrap;html=1;" vertex="1" parent="Dw0zCbdRvmjCRuqw88a7-7">
          <mxGeometry y="650" width="190" height="26" as="geometry" />
        </mxCell>
        <mxCell id="cEJkaudLO_2ttOXW4UQ3-14" value="+ update_role: bool&amp;nbsp;NULL" style="text;strokeColor=none;fillColor=none;align=left;verticalAlign=top;spacingLeft=4;spacingRight=4;overflow=hidden;rotatable=0;points=[[0,0.5],[1,0.5]];portConstraint=eastwest;whiteSpace=wrap;html=1;" vertex="1" parent="Dw0zCbdRvmjCRuqw88a7-7">
          <mxGeometry y="676" width="190" height="26" as="geometry" />
        </mxCell>
        <mxCell id="cEJkaudLO_2ttOXW4UQ3-12" value="+ delete_role: bool&amp;nbsp;NULL" style="text;strokeColor=none;fillColor=none;align=left;verticalAlign=top;spacingLeft=4;spacingRight=4;overflow=hidden;rotatable=0;points=[[0,0.5],[1,0.5]];portConstraint=eastwest;whiteSpace=wrap;html=1;" vertex="1" parent="Dw0zCbdRvmjCRuqw88a7-7">
          <mxGeometry y="702" width="190" height="26" as="geometry" />
        </mxCell>
        <mxCell id="Dw0zCbdRvmjCRuqw88a7-22" value="+ create_category: bool&amp;nbsp;NULL" style="text;strokeColor=none;fillColor=none;align=left;verticalAlign=top;spacingLeft=4;spacingRight=4;overflow=hidden;rotatable=0;points=[[0,0.5],[1,0.5]];portConstraint=eastwest;whiteSpace=wrap;html=1;" parent="Dw0zCbdRvmjCRuqw88a7-7" vertex="1">
          <mxGeometry y="728" width="190" height="28" as="geometry" />
        </mxCell>
        <mxCell id="cEJkaudLO_2ttOXW4UQ3-13" value="+ read_category: bool&amp;nbsp;NULL" style="text;strokeColor=none;fillColor=none;align=left;verticalAlign=top;spacingLeft=4;spacingRight=4;overflow=hidden;rotatable=0;points=[[0,0.5],[1,0.5]];portConstraint=eastwest;whiteSpace=wrap;html=1;" vertex="1" parent="Dw0zCbdRvmjCRuqw88a7-7">
          <mxGeometry y="756" width="190" height="26" as="geometry" />
        </mxCell>
        <mxCell id="cEJkaudLO_2ttOXW4UQ3-11" value="+ update_category: bool&amp;nbsp;NULL" style="text;strokeColor=none;fillColor=none;align=left;verticalAlign=top;spacingLeft=4;spacingRight=4;overflow=hidden;rotatable=0;points=[[0,0.5],[1,0.5]];portConstraint=eastwest;whiteSpace=wrap;html=1;" vertex="1" parent="Dw0zCbdRvmjCRuqw88a7-7">
          <mxGeometry y="782" width="190" height="26" as="geometry" />
        </mxCell>
        <mxCell id="cEJkaudLO_2ttOXW4UQ3-15" value="+ delete_category: bool&amp;nbsp;NULL" style="text;strokeColor=none;fillColor=none;align=left;verticalAlign=top;spacingLeft=4;spacingRight=4;overflow=hidden;rotatable=0;points=[[0,0.5],[1,0.5]];portConstraint=eastwest;whiteSpace=wrap;html=1;" vertex="1" parent="Dw0zCbdRvmjCRuqw88a7-7">
          <mxGeometry y="808" width="190" height="26" as="geometry" />
        </mxCell>
        <mxCell id="cEJkaudLO_2ttOXW4UQ3-76" value="+ create_worktime: bool&amp;nbsp;NULL" style="text;strokeColor=none;fillColor=none;align=left;verticalAlign=top;spacingLeft=4;spacingRight=4;overflow=hidden;rotatable=0;points=[[0,0.5],[1,0.5]];portConstraint=eastwest;whiteSpace=wrap;html=1;" vertex="1" parent="Dw0zCbdRvmjCRuqw88a7-7">
          <mxGeometry y="834" width="190" height="28" as="geometry" />
        </mxCell>
        <mxCell id="cEJkaudLO_2ttOXW4UQ3-77" value="+ read_worktime: bool&amp;nbsp;NULL" style="text;strokeColor=none;fillColor=none;align=left;verticalAlign=top;spacingLeft=4;spacingRight=4;overflow=hidden;rotatable=0;points=[[0,0.5],[1,0.5]];portConstraint=eastwest;whiteSpace=wrap;html=1;" vertex="1" parent="Dw0zCbdRvmjCRuqw88a7-7">
          <mxGeometry y="862" width="190" height="26" as="geometry" />
        </mxCell>
        <mxCell id="cEJkaudLO_2ttOXW4UQ3-78" value="+ update_worktime: bool&amp;nbsp;NULL" style="text;strokeColor=none;fillColor=none;align=left;verticalAlign=top;spacingLeft=4;spacingRight=4;overflow=hidden;rotatable=0;points=[[0,0.5],[1,0.5]];portConstraint=eastwest;whiteSpace=wrap;html=1;fontColor=#FF0000;" vertex="1" parent="Dw0zCbdRvmjCRuqw88a7-7">
          <mxGeometry y="888" width="190" height="26" as="geometry" />
        </mxCell>
        <mxCell id="cEJkaudLO_2ttOXW4UQ3-79" value="+ delete_worktime: bool&amp;nbsp;NULL" style="text;strokeColor=none;fillColor=none;align=left;verticalAlign=top;spacingLeft=4;spacingRight=4;overflow=hidden;rotatable=0;points=[[0,0.5],[1,0.5]];portConstraint=eastwest;whiteSpace=wrap;html=1;" vertex="1" parent="Dw0zCbdRvmjCRuqw88a7-7">
          <mxGeometry y="914" width="190" height="26" as="geometry" />
        </mxCell>
        <mxCell id="Dw0zCbdRvmjCRuqw88a7-10" value="" style="line;strokeWidth=1;fillColor=none;align=left;verticalAlign=middle;spacingTop=-1;spacingLeft=3;spacingRight=3;rotatable=0;labelPosition=right;points=[];portConstraint=eastwest;strokeColor=inherit;" parent="Dw0zCbdRvmjCRuqw88a7-7" vertex="1">
          <mxGeometry y="940" width="190" height="8" as="geometry" />
        </mxCell>
        <mxCell id="Dw0zCbdRvmjCRuqw88a7-25" value="Category" style="swimlane;fontStyle=1;align=center;verticalAlign=top;childLayout=stackLayout;horizontal=1;startSize=26;horizontalStack=0;resizeParent=1;resizeParentMax=0;resizeLast=0;collapsible=1;marginBottom=0;whiteSpace=wrap;html=1;" parent="1" vertex="1">
          <mxGeometry x="330" y="540" width="160" height="112" as="geometry" />
        </mxCell>
        <mxCell id="Dw0zCbdRvmjCRuqw88a7-26" value="+ name : string UNIQUE" style="text;strokeColor=none;fillColor=none;align=left;verticalAlign=top;spacingLeft=4;spacingRight=4;overflow=hidden;rotatable=0;points=[[0,0.5],[1,0.5]];portConstraint=eastwest;whiteSpace=wrap;html=1;" parent="Dw0zCbdRvmjCRuqw88a7-25" vertex="1">
          <mxGeometry y="26" width="160" height="26" as="geometry" />
        </mxCell>
        <mxCell id="Dw0zCbdRvmjCRuqw88a7-27" value="+ description : string" style="text;strokeColor=none;fillColor=none;align=left;verticalAlign=top;spacingLeft=4;spacingRight=4;overflow=hidden;rotatable=0;points=[[0,0.5],[1,0.5]];portConstraint=eastwest;whiteSpace=wrap;html=1;" parent="Dw0zCbdRvmjCRuqw88a7-25" vertex="1">
          <mxGeometry y="52" width="160" height="26" as="geometry" />
        </mxCell>
        <mxCell id="cEJkaudLO_2ttOXW4UQ3-19" value="+ default_shift_id: int NULL" style="text;strokeColor=none;fillColor=none;align=left;verticalAlign=top;spacingLeft=4;spacingRight=4;overflow=hidden;rotatable=0;points=[[0,0.5],[1,0.5]];portConstraint=eastwest;whiteSpace=wrap;html=1;" vertex="1" parent="Dw0zCbdRvmjCRuqw88a7-25">
          <mxGeometry y="78" width="160" height="26" as="geometry" />
        </mxCell>
        <mxCell id="Dw0zCbdRvmjCRuqw88a7-29" value="" style="line;strokeWidth=1;fillColor=none;align=left;verticalAlign=middle;spacingTop=-1;spacingLeft=3;spacingRight=3;rotatable=0;labelPosition=right;points=[];portConstraint=eastwest;strokeColor=inherit;" parent="Dw0zCbdRvmjCRuqw88a7-25" vertex="1">
          <mxGeometry y="104" width="160" height="8" as="geometry" />
        </mxCell>
        <mxCell id="cEJkaudLO_2ttOXW4UQ3-20" value="Worktime" style="swimlane;fontStyle=1;align=center;verticalAlign=top;childLayout=stackLayout;horizontal=1;startSize=26;horizontalStack=0;resizeParent=1;resizeParentMax=0;resizeLast=0;collapsible=1;marginBottom=0;whiteSpace=wrap;html=1;" vertex="1" parent="1">
          <mxGeometry x="90" y="280" width="160" height="268" as="geometry" />
        </mxCell>
        <mxCell id="cEJkaudLO_2ttOXW4UQ3-30" value="+ name : string UNIQUE" style="text;strokeColor=none;fillColor=none;align=left;verticalAlign=top;spacingLeft=4;spacingRight=4;overflow=hidden;rotatable=0;points=[[0,0.5],[1,0.5]];portConstraint=eastwest;whiteSpace=wrap;html=1;" vertex="1" parent="cEJkaudLO_2ttOXW4UQ3-20">
          <mxGeometry y="26" width="160" height="26" as="geometry" />
        </mxCell>
        <mxCell id="cEJkaudLO_2ttOXW4UQ3-81" value="+ person_id: int" style="text;strokeColor=none;fillColor=none;align=left;verticalAlign=top;spacingLeft=4;spacingRight=4;overflow=hidden;rotatable=0;points=[[0,0.5],[1,0.5]];portConstraint=eastwest;whiteSpace=wrap;html=1;" vertex="1" parent="cEJkaudLO_2ttOXW4UQ3-20">
          <mxGeometry y="52" width="160" height="26" as="geometry" />
        </mxCell>
        <mxCell id="cEJkaudLO_2ttOXW4UQ3-59" value="+ shift_id : int NULL" style="text;strokeColor=none;fillColor=none;align=left;verticalAlign=top;spacingLeft=4;spacingRight=4;overflow=hidden;rotatable=0;points=[[0,0.5],[1,0.5]];portConstraint=eastwest;whiteSpace=wrap;html=1;" vertex="1" parent="cEJkaudLO_2ttOXW4UQ3-20">
          <mxGeometry y="78" width="160" height="26" as="geometry" />
        </mxCell>
        <mxCell id="cEJkaudLO_2ttOXW4UQ3-71" value="+ event_id : int NULL" style="text;strokeColor=none;fillColor=none;align=left;verticalAlign=top;spacingLeft=4;spacingRight=4;overflow=hidden;rotatable=0;points=[[0,0.5],[1,0.5]];portConstraint=eastwest;whiteSpace=wrap;html=1;" vertex="1" parent="cEJkaudLO_2ttOXW4UQ3-20">
          <mxGeometry y="104" width="160" height="26" as="geometry" />
        </mxCell>
        <mxCell id="cEJkaudLO_2ttOXW4UQ3-102" value="+ date : date&amp;nbsp;" style="text;strokeColor=none;fillColor=none;align=left;verticalAlign=top;spacingLeft=4;spacingRight=4;overflow=hidden;rotatable=0;points=[[0,0.5],[1,0.5]];portConstraint=eastwest;whiteSpace=wrap;html=1;" vertex="1" parent="cEJkaudLO_2ttOXW4UQ3-20">
          <mxGeometry y="130" width="160" height="26" as="geometry" />
        </mxCell>
        <mxCell id="cEJkaudLO_2ttOXW4UQ3-21" value="+ start : time NULL" style="text;strokeColor=none;fillColor=none;align=left;verticalAlign=top;spacingLeft=4;spacingRight=4;overflow=hidden;rotatable=0;points=[[0,0.5],[1,0.5]];portConstraint=eastwest;whiteSpace=wrap;html=1;" vertex="1" parent="cEJkaudLO_2ttOXW4UQ3-20">
          <mxGeometry y="156" width="160" height="26" as="geometry" />
        </mxCell>
        <mxCell id="cEJkaudLO_2ttOXW4UQ3-22" value="+ end : time&amp;nbsp;NULL" style="text;strokeColor=none;fillColor=none;align=left;verticalAlign=top;spacingLeft=4;spacingRight=4;overflow=hidden;rotatable=0;points=[[0,0.5],[1,0.5]];portConstraint=eastwest;whiteSpace=wrap;html=1;" vertex="1" parent="cEJkaudLO_2ttOXW4UQ3-20">
          <mxGeometry y="182" width="160" height="26" as="geometry" />
        </mxCell>
        <mxCell id="cEJkaudLO_2ttOXW4UQ3-80" value="+ time_length : int NULL" style="text;strokeColor=none;fillColor=none;align=left;verticalAlign=top;spacingLeft=4;spacingRight=4;overflow=hidden;rotatable=0;points=[[0,0.5],[1,0.5]];portConstraint=eastwest;whiteSpace=wrap;html=1;fontColor=#0000FF;" vertex="1" parent="cEJkaudLO_2ttOXW4UQ3-20">
          <mxGeometry y="208" width="160" height="26" as="geometry" />
        </mxCell>
        <mxCell id="cEJkaudLO_2ttOXW4UQ3-37" value="+ is_trusted: bool" style="text;strokeColor=none;fillColor=none;align=left;verticalAlign=top;spacingLeft=4;spacingRight=4;overflow=hidden;rotatable=0;points=[[0,0.5],[1,0.5]];portConstraint=eastwest;whiteSpace=wrap;html=1;" vertex="1" parent="cEJkaudLO_2ttOXW4UQ3-20">
          <mxGeometry y="234" width="160" height="26" as="geometry" />
        </mxCell>
        <mxCell id="cEJkaudLO_2ttOXW4UQ3-24" value="" style="line;strokeWidth=1;fillColor=none;align=left;verticalAlign=middle;spacingTop=-1;spacingLeft=3;spacingRight=3;rotatable=0;labelPosition=right;points=[];portConstraint=eastwest;strokeColor=inherit;" vertex="1" parent="cEJkaudLO_2ttOXW4UQ3-20">
          <mxGeometry y="260" width="160" height="8" as="geometry" />
        </mxCell>
        <mxCell id="cEJkaudLO_2ttOXW4UQ3-31" value="Shift" style="swimlane;fontStyle=1;align=center;verticalAlign=top;childLayout=stackLayout;horizontal=1;startSize=26;horizontalStack=0;resizeParent=1;resizeParentMax=0;resizeLast=0;collapsible=1;marginBottom=0;whiteSpace=wrap;html=1;" vertex="1" parent="1">
          <mxGeometry x="330" y="90" width="160" height="112" as="geometry" />
        </mxCell>
        <mxCell id="cEJkaudLO_2ttOXW4UQ3-32" value="+ name : string UNIQUE" style="text;strokeColor=none;fillColor=none;align=left;verticalAlign=top;spacingLeft=4;spacingRight=4;overflow=hidden;rotatable=0;points=[[0,0.5],[1,0.5]];portConstraint=eastwest;whiteSpace=wrap;html=1;" vertex="1" parent="cEJkaudLO_2ttOXW4UQ3-31">
          <mxGeometry y="26" width="160" height="26" as="geometry" />
        </mxCell>
        <mxCell id="cEJkaudLO_2ttOXW4UQ3-33" value="+ start : time" style="text;strokeColor=none;fillColor=none;align=left;verticalAlign=top;spacingLeft=4;spacingRight=4;overflow=hidden;rotatable=0;points=[[0,0.5],[1,0.5]];portConstraint=eastwest;whiteSpace=wrap;html=1;" vertex="1" parent="cEJkaudLO_2ttOXW4UQ3-31">
          <mxGeometry y="52" width="160" height="26" as="geometry" />
        </mxCell>
        <mxCell id="cEJkaudLO_2ttOXW4UQ3-34" value="+ end : time" style="text;strokeColor=none;fillColor=none;align=left;verticalAlign=top;spacingLeft=4;spacingRight=4;overflow=hidden;rotatable=0;points=[[0,0.5],[1,0.5]];portConstraint=eastwest;whiteSpace=wrap;html=1;" vertex="1" parent="cEJkaudLO_2ttOXW4UQ3-31">
          <mxGeometry y="78" width="160" height="26" as="geometry" />
        </mxCell>
        <mxCell id="cEJkaudLO_2ttOXW4UQ3-36" value="" style="line;strokeWidth=1;fillColor=none;align=left;verticalAlign=middle;spacingTop=-1;spacingLeft=3;spacingRight=3;rotatable=0;labelPosition=right;points=[];portConstraint=eastwest;strokeColor=inherit;" vertex="1" parent="cEJkaudLO_2ttOXW4UQ3-31">
          <mxGeometry y="104" width="160" height="8" as="geometry" />
        </mxCell>
        <mxCell id="cEJkaudLO_2ttOXW4UQ3-52" value="" style="endArrow=none;html=1;rounded=0;exitX=1;exitY=0.5;exitDx=0;exitDy=0;entryX=0;entryY=0.5;entryDx=0;entryDy=0;" edge="1" parent="1" source="KDd4eSBWKSHy57C9hywJ-119" target="KDd4eSBWKSHy57C9hywJ-122">
          <mxGeometry relative="1" as="geometry">
            <mxPoint x="650" y="266" as="sourcePoint" />
            <mxPoint x="810" y="266" as="targetPoint" />
          </mxGeometry>
        </mxCell>
        <mxCell id="cEJkaudLO_2ttOXW4UQ3-53" value="1" style="resizable=0;html=1;whiteSpace=wrap;align=left;verticalAlign=bottom;" connectable="0" vertex="1" parent="cEJkaudLO_2ttOXW4UQ3-52">
          <mxGeometry x="-1" relative="1" as="geometry" />
        </mxCell>
        <mxCell id="cEJkaudLO_2ttOXW4UQ3-54" value="*" style="resizable=0;html=1;whiteSpace=wrap;align=right;verticalAlign=bottom;" connectable="0" vertex="1" parent="cEJkaudLO_2ttOXW4UQ3-52">
          <mxGeometry x="1" relative="1" as="geometry" />
        </mxCell>
        <mxCell id="Dw0zCbdRvmjCRuqw88a7-1" value="User" style="swimlane;fontStyle=1;align=center;verticalAlign=top;childLayout=stackLayout;horizontal=1;startSize=26;horizontalStack=0;resizeParent=1;resizeParentMax=0;resizeLast=0;collapsible=1;marginBottom=0;whiteSpace=wrap;html=1;" parent="1" vertex="1">
          <mxGeometry x="115" y="1315" width="160" height="112" as="geometry" />
        </mxCell>
        <mxCell id="Dw0zCbdRvmjCRuqw88a7-3" value="+ name : string UNIQUE" style="text;strokeColor=none;fillColor=none;align=left;verticalAlign=top;spacingLeft=4;spacingRight=4;overflow=hidden;rotatable=0;points=[[0,0.5],[1,0.5]];portConstraint=eastwest;whiteSpace=wrap;html=1;" parent="Dw0zCbdRvmjCRuqw88a7-1" vertex="1">
          <mxGeometry y="26" width="160" height="26" as="geometry" />
        </mxCell>
        <mxCell id="Dw0zCbdRvmjCRuqw88a7-23" value="+ description : string" style="text;strokeColor=none;fillColor=none;align=left;verticalAlign=top;spacingLeft=4;spacingRight=4;overflow=hidden;rotatable=0;points=[[0,0.5],[1,0.5]];portConstraint=eastwest;whiteSpace=wrap;html=1;" parent="Dw0zCbdRvmjCRuqw88a7-1" vertex="1">
          <mxGeometry y="52" width="160" height="26" as="geometry" />
        </mxCell>
        <mxCell id="Dw0zCbdRvmjCRuqw88a7-2" value="+ role_id: int" style="text;strokeColor=none;fillColor=none;align=left;verticalAlign=top;spacingLeft=4;spacingRight=4;overflow=hidden;rotatable=0;points=[[0,0.5],[1,0.5]];portConstraint=eastwest;whiteSpace=wrap;html=1;" parent="Dw0zCbdRvmjCRuqw88a7-1" vertex="1">
          <mxGeometry y="78" width="160" height="26" as="geometry" />
        </mxCell>
        <mxCell id="Dw0zCbdRvmjCRuqw88a7-5" value="" style="line;strokeWidth=1;fillColor=none;align=left;verticalAlign=middle;spacingTop=-1;spacingLeft=3;spacingRight=3;rotatable=0;labelPosition=right;points=[];portConstraint=eastwest;strokeColor=inherit;" parent="Dw0zCbdRvmjCRuqw88a7-1" vertex="1">
          <mxGeometry y="104" width="160" height="8" as="geometry" />
        </mxCell>
        <mxCell id="cEJkaudLO_2ttOXW4UQ3-55" value="" style="endArrow=none;html=1;rounded=0;exitX=1;exitY=0.5;exitDx=0;exitDy=0;entryX=0;entryY=0.5;entryDx=0;entryDy=0;" edge="1" parent="1" source="Dw0zCbdRvmjCRuqw88a7-23" target="Dw0zCbdRvmjCRuqw88a7-9">
          <mxGeometry relative="1" as="geometry">
            <mxPoint x="125" y="1170" as="sourcePoint" />
            <mxPoint x="285" y="1170" as="targetPoint" />
          </mxGeometry>
        </mxCell>
        <mxCell id="cEJkaudLO_2ttOXW4UQ3-56" value="*" style="resizable=0;html=1;whiteSpace=wrap;align=left;verticalAlign=bottom;" connectable="0" vertex="1" parent="cEJkaudLO_2ttOXW4UQ3-55">
          <mxGeometry x="-1" relative="1" as="geometry" />
        </mxCell>
        <mxCell id="cEJkaudLO_2ttOXW4UQ3-57" value="1" style="resizable=0;html=1;whiteSpace=wrap;align=right;verticalAlign=bottom;" connectable="0" vertex="1" parent="cEJkaudLO_2ttOXW4UQ3-55">
          <mxGeometry x="1" relative="1" as="geometry" />
        </mxCell>
        <mxCell id="cEJkaudLO_2ttOXW4UQ3-60" value="" style="endArrow=none;html=1;rounded=0;exitX=0.5;exitY=0;exitDx=0;exitDy=0;entryX=0.5;entryY=1;entryDx=0;entryDy=0;" edge="1" parent="1" source="Dw0zCbdRvmjCRuqw88a7-25" target="KDd4eSBWKSHy57C9hywJ-114">
          <mxGeometry relative="1" as="geometry">
            <mxPoint x="650" y="506" as="sourcePoint" />
            <mxPoint x="810" y="506" as="targetPoint" />
          </mxGeometry>
        </mxCell>
        <mxCell id="cEJkaudLO_2ttOXW4UQ3-61" value="1" style="resizable=0;html=1;whiteSpace=wrap;align=left;verticalAlign=bottom;" connectable="0" vertex="1" parent="cEJkaudLO_2ttOXW4UQ3-60">
          <mxGeometry x="-1" relative="1" as="geometry" />
        </mxCell>
        <mxCell id="cEJkaudLO_2ttOXW4UQ3-62" value="*" style="resizable=0;html=1;whiteSpace=wrap;align=right;verticalAlign=bottom;" connectable="0" vertex="1" parent="cEJkaudLO_2ttOXW4UQ3-60">
          <mxGeometry x="1" relative="1" as="geometry">
            <mxPoint y="22" as="offset" />
          </mxGeometry>
        </mxCell>
        <mxCell id="cEJkaudLO_2ttOXW4UQ3-63" value="Event" style="swimlane;fontStyle=1;align=center;verticalAlign=top;childLayout=stackLayout;horizontal=1;startSize=26;horizontalStack=0;resizeParent=1;resizeParentMax=0;resizeLast=0;collapsible=1;marginBottom=0;whiteSpace=wrap;html=1;" vertex="1" parent="1">
          <mxGeometry x="90" y="620" width="160" height="112" as="geometry" />
        </mxCell>
        <mxCell id="cEJkaudLO_2ttOXW4UQ3-64" value="+ name : string UNIQUE" style="text;strokeColor=none;fillColor=none;align=left;verticalAlign=top;spacingLeft=4;spacingRight=4;overflow=hidden;rotatable=0;points=[[0,0.5],[1,0.5]];portConstraint=eastwest;whiteSpace=wrap;html=1;" vertex="1" parent="cEJkaudLO_2ttOXW4UQ3-63">
          <mxGeometry y="26" width="160" height="26" as="geometry" />
        </mxCell>
        <mxCell id="cEJkaudLO_2ttOXW4UQ3-70" value="+ description : string" style="text;strokeColor=none;fillColor=none;align=left;verticalAlign=top;spacingLeft=4;spacingRight=4;overflow=hidden;rotatable=0;points=[[0,0.5],[1,0.5]];portConstraint=eastwest;whiteSpace=wrap;html=1;" vertex="1" parent="cEJkaudLO_2ttOXW4UQ3-63">
          <mxGeometry y="52" width="160" height="26" as="geometry" />
        </mxCell>
        <mxCell id="cEJkaudLO_2ttOXW4UQ3-72" value="+ is_day_off : bool" style="text;strokeColor=none;fillColor=none;align=left;verticalAlign=top;spacingLeft=4;spacingRight=4;overflow=hidden;rotatable=0;points=[[0,0.5],[1,0.5]];portConstraint=eastwest;whiteSpace=wrap;html=1;" vertex="1" parent="cEJkaudLO_2ttOXW4UQ3-63">
          <mxGeometry y="78" width="160" height="26" as="geometry" />
        </mxCell>
        <mxCell id="cEJkaudLO_2ttOXW4UQ3-69" value="" style="line;strokeWidth=1;fillColor=none;align=left;verticalAlign=middle;spacingTop=-1;spacingLeft=3;spacingRight=3;rotatable=0;labelPosition=right;points=[];portConstraint=eastwest;strokeColor=inherit;" vertex="1" parent="cEJkaudLO_2ttOXW4UQ3-63">
          <mxGeometry y="104" width="160" height="8" as="geometry" />
        </mxCell>
        <mxCell id="cEJkaudLO_2ttOXW4UQ3-73" value="" style="endArrow=none;html=1;rounded=0;exitX=0.5;exitY=0;exitDx=0;exitDy=0;entryX=0.5;entryY=1;entryDx=0;entryDy=0;edgeStyle=orthogonalEdgeStyle;" edge="1" parent="1" source="KDd4eSBWKSHy57C9hywJ-114" target="cEJkaudLO_2ttOXW4UQ3-31">
          <mxGeometry relative="1" as="geometry">
            <mxPoint x="160" y="308" as="sourcePoint" />
            <mxPoint x="160" y="256" as="targetPoint" />
          </mxGeometry>
        </mxCell>
        <mxCell id="cEJkaudLO_2ttOXW4UQ3-74" value="*" style="resizable=0;html=1;whiteSpace=wrap;align=left;verticalAlign=bottom;" connectable="0" vertex="1" parent="cEJkaudLO_2ttOXW4UQ3-73">
          <mxGeometry x="-1" relative="1" as="geometry">
            <mxPoint x="-10" as="offset" />
          </mxGeometry>
        </mxCell>
        <mxCell id="cEJkaudLO_2ttOXW4UQ3-75" value="0..1" style="resizable=0;html=1;whiteSpace=wrap;align=right;verticalAlign=bottom;" connectable="0" vertex="1" parent="cEJkaudLO_2ttOXW4UQ3-73">
          <mxGeometry x="1" relative="1" as="geometry">
            <mxPoint x="30" y="22" as="offset" />
          </mxGeometry>
        </mxCell>
        <mxCell id="cEJkaudLO_2ttOXW4UQ3-87" value="NFCType" style="swimlane;fontStyle=1;align=center;verticalAlign=top;childLayout=stackLayout;horizontal=1;startSize=26;horizontalStack=0;resizeParent=1;resizeParentMax=0;resizeLast=0;collapsible=1;marginBottom=0;whiteSpace=wrap;html=1;fontColor=#0000FF;" vertex="1" parent="1">
          <mxGeometry x="560" y="540" width="160" height="86" as="geometry" />
        </mxCell>
        <mxCell id="cEJkaudLO_2ttOXW4UQ3-88" value="+ name: string UNIQUE" style="text;strokeColor=none;fillColor=none;align=left;verticalAlign=top;spacingLeft=4;spacingRight=4;overflow=hidden;rotatable=0;points=[[0,0.5],[1,0.5]];portConstraint=eastwest;whiteSpace=wrap;html=1;fontColor=#0000FF;" vertex="1" parent="cEJkaudLO_2ttOXW4UQ3-87">
          <mxGeometry y="26" width="160" height="26" as="geometry" />
        </mxCell>
        <mxCell id="cEJkaudLO_2ttOXW4UQ3-90" value="+ technology_id: int" style="text;strokeColor=none;fillColor=none;align=left;verticalAlign=top;spacingLeft=4;spacingRight=4;overflow=hidden;rotatable=0;points=[[0,0.5],[1,0.5]];portConstraint=eastwest;whiteSpace=wrap;html=1;fontColor=#0000FF;" vertex="1" parent="cEJkaudLO_2ttOXW4UQ3-87">
          <mxGeometry y="52" width="160" height="26" as="geometry" />
        </mxCell>
        <mxCell id="cEJkaudLO_2ttOXW4UQ3-91" value="" style="line;strokeWidth=1;fillColor=none;align=left;verticalAlign=middle;spacingTop=-1;spacingLeft=3;spacingRight=3;rotatable=0;labelPosition=right;points=[];portConstraint=eastwest;strokeColor=inherit;fontColor=#0000FF;" vertex="1" parent="cEJkaudLO_2ttOXW4UQ3-87">
          <mxGeometry y="78" width="160" height="8" as="geometry" />
        </mxCell>
        <mxCell id="cEJkaudLO_2ttOXW4UQ3-92" value="NFCTechnology" style="swimlane;fontStyle=1;align=center;verticalAlign=top;childLayout=stackLayout;horizontal=1;startSize=26;horizontalStack=0;resizeParent=1;resizeParentMax=0;resizeLast=0;collapsible=1;marginBottom=0;whiteSpace=wrap;html=1;fontColor=#0000FF;" vertex="1" parent="1">
          <mxGeometry x="560" y="699" width="160" height="60" as="geometry" />
        </mxCell>
        <mxCell id="cEJkaudLO_2ttOXW4UQ3-93" value="+ name: string UNIQUE" style="text;strokeColor=none;fillColor=none;align=left;verticalAlign=top;spacingLeft=4;spacingRight=4;overflow=hidden;rotatable=0;points=[[0,0.5],[1,0.5]];portConstraint=eastwest;whiteSpace=wrap;html=1;fontColor=#0000FF;" vertex="1" parent="cEJkaudLO_2ttOXW4UQ3-92">
          <mxGeometry y="26" width="160" height="26" as="geometry" />
        </mxCell>
        <mxCell id="cEJkaudLO_2ttOXW4UQ3-95" value="" style="line;strokeWidth=1;fillColor=none;align=left;verticalAlign=middle;spacingTop=-1;spacingLeft=3;spacingRight=3;rotatable=0;labelPosition=right;points=[];portConstraint=eastwest;strokeColor=inherit;fontColor=#0000FF;" vertex="1" parent="cEJkaudLO_2ttOXW4UQ3-92">
          <mxGeometry y="52" width="160" height="8" as="geometry" />
        </mxCell>
        <mxCell id="cEJkaudLO_2ttOXW4UQ3-96" value="" style="endArrow=none;html=1;rounded=0;exitX=0.5;exitY=0;exitDx=0;exitDy=0;entryX=0.5;entryY=1;entryDx=0;entryDy=0;" edge="1" parent="1" source="cEJkaudLO_2ttOXW4UQ3-87" target="KDd4eSBWKSHy57C9hywJ-120">
          <mxGeometry relative="1" as="geometry">
            <mxPoint x="500" y="450" as="sourcePoint" />
            <mxPoint x="570" y="450" as="targetPoint" />
          </mxGeometry>
        </mxCell>
        <mxCell id="cEJkaudLO_2ttOXW4UQ3-97" value="1" style="resizable=0;html=1;whiteSpace=wrap;align=left;verticalAlign=bottom;fontColor=#0000FF;" connectable="0" vertex="1" parent="cEJkaudLO_2ttOXW4UQ3-96">
          <mxGeometry x="-1" relative="1" as="geometry" />
        </mxCell>
        <mxCell id="cEJkaudLO_2ttOXW4UQ3-98" value="*" style="resizable=0;html=1;whiteSpace=wrap;align=right;verticalAlign=bottom;" connectable="0" vertex="1" parent="cEJkaudLO_2ttOXW4UQ3-96">
          <mxGeometry x="1" relative="1" as="geometry">
            <mxPoint y="22" as="offset" />
          </mxGeometry>
        </mxCell>
        <mxCell id="cEJkaudLO_2ttOXW4UQ3-99" value="" style="endArrow=none;html=1;rounded=0;exitX=0.5;exitY=0;exitDx=0;exitDy=0;entryX=0.5;entryY=1;entryDx=0;entryDy=0;fontColor=#0000FF;" edge="1" parent="1" source="cEJkaudLO_2ttOXW4UQ3-92" target="cEJkaudLO_2ttOXW4UQ3-87">
          <mxGeometry relative="1" as="geometry">
            <mxPoint x="630" y="712" as="sourcePoint" />
            <mxPoint x="630" y="634" as="targetPoint" />
          </mxGeometry>
        </mxCell>
        <mxCell id="cEJkaudLO_2ttOXW4UQ3-100" value="1" style="resizable=0;html=1;whiteSpace=wrap;align=left;verticalAlign=bottom;fontColor=#0000FF;" connectable="0" vertex="1" parent="cEJkaudLO_2ttOXW4UQ3-99">
          <mxGeometry x="-1" relative="1" as="geometry" />
        </mxCell>
        <mxCell id="cEJkaudLO_2ttOXW4UQ3-101" value="*" style="resizable=0;html=1;whiteSpace=wrap;align=right;verticalAlign=bottom;fontColor=#0000FF;" connectable="0" vertex="1" parent="cEJkaudLO_2ttOXW4UQ3-99">
          <mxGeometry x="1" relative="1" as="geometry">
            <mxPoint y="18" as="offset" />
          </mxGeometry>
        </mxCell>
        <mxCell id="cEJkaudLO_2ttOXW4UQ3-104" value="" style="endArrow=none;html=1;rounded=0;exitX=0.5;exitY=0;exitDx=0;exitDy=0;entryX=0;entryY=0.5;entryDx=0;entryDy=0;edgeStyle=orthogonalEdgeStyle;" edge="1" parent="1" source="cEJkaudLO_2ttOXW4UQ3-20" target="cEJkaudLO_2ttOXW4UQ3-33">
          <mxGeometry relative="1" as="geometry">
            <mxPoint x="190" y="208" as="sourcePoint" />
            <mxPoint x="190" y="130" as="targetPoint" />
          </mxGeometry>
        </mxCell>
        <mxCell id="cEJkaudLO_2ttOXW4UQ3-105" value="*" style="resizable=0;html=1;whiteSpace=wrap;align=left;verticalAlign=bottom;" connectable="0" vertex="1" parent="cEJkaudLO_2ttOXW4UQ3-104">
          <mxGeometry x="-1" relative="1" as="geometry">
            <mxPoint x="-10" as="offset" />
          </mxGeometry>
        </mxCell>
        <mxCell id="cEJkaudLO_2ttOXW4UQ3-106" value="0..1" style="resizable=0;html=1;whiteSpace=wrap;align=right;verticalAlign=bottom;" connectable="0" vertex="1" parent="cEJkaudLO_2ttOXW4UQ3-104">
          <mxGeometry x="1" relative="1" as="geometry">
            <mxPoint x="-7" y="22" as="offset" />
          </mxGeometry>
        </mxCell>
        <mxCell id="cEJkaudLO_2ttOXW4UQ3-107" value="" style="endArrow=none;html=1;rounded=0;exitX=0.5;exitY=0;exitDx=0;exitDy=0;entryX=0.5;entryY=1;entryDx=0;entryDy=0;" edge="1" parent="1" source="cEJkaudLO_2ttOXW4UQ3-63" target="cEJkaudLO_2ttOXW4UQ3-20">
          <mxGeometry relative="1" as="geometry">
            <mxPoint x="150" y="626" as="sourcePoint" />
            <mxPoint x="150" y="556" as="targetPoint" />
          </mxGeometry>
        </mxCell>
        <mxCell id="cEJkaudLO_2ttOXW4UQ3-108" value="1" style="resizable=0;html=1;whiteSpace=wrap;align=left;verticalAlign=bottom;" connectable="0" vertex="1" parent="cEJkaudLO_2ttOXW4UQ3-107">
          <mxGeometry x="-1" relative="1" as="geometry" />
        </mxCell>
        <mxCell id="cEJkaudLO_2ttOXW4UQ3-109" value="*" style="resizable=0;html=1;whiteSpace=wrap;align=right;verticalAlign=bottom;" connectable="0" vertex="1" parent="cEJkaudLO_2ttOXW4UQ3-107">
          <mxGeometry x="1" relative="1" as="geometry">
            <mxPoint y="22" as="offset" />
          </mxGeometry>
        </mxCell>
        <mxCell id="cEJkaudLO_2ttOXW4UQ3-110" value="*Uneditable with API request, must be computed or fixed, not replaced" style="text;html=1;align=center;verticalAlign=middle;resizable=0;points=[];autosize=1;strokeColor=none;fillColor=none;fontColor=#0000FF;" vertex="1" parent="1">
          <mxGeometry x="380" y="808" width="400" height="30" as="geometry" />
        </mxCell>
      </root>
    </mxGraphModel>
  </diagram>
</mxfile>
